<?xml version="1.0" encoding="UTF-8" standalone="no"?>
<!DOCTYPE svg PUBLIC "-//W3C//DTD SVG 1.1//EN" "http://www.w3.org/Graphics/SVG/1.1/DTD/svg11.dtd">
<svg width="100%" height="100%" viewBox="0 0 287 63" version="1.1" xmlns="http://www.w3.org/2000/svg" xmlns:xlink="http://www.w3.org/1999/xlink" xml:space="preserve" xmlns:serif="http://www.serif.com/" style="fill-rule:evenodd;clip-rule:evenodd;stroke-linejoin:round;stroke-miterlimit:2;">
    <g transform="matrix(1,0,0,1,-511.513,-399)">
        <g id="Logo-No-Background" serif:id="Logo No Background" transform="matrix(1.1465,0,0,1.16572,-38.8068,-66.607)">
            <rect x="480" y="399.416" width="249.923" height="53.33" style="fill:none;"/>
            <g transform="matrix(0.87222,0,0,0.857839,427.923,266.931)">
                <g transform="matrix(1,0,0,1,-450.048,-243.886)">
                    <path d="M560.58,410.097L544.52,438.756L528.461,410.097L511.513,419.882L511.513,438.939L544.52,457.996L577.528,438.939L577.528,419.882L560.58,410.097ZM548.927,403.369L544.52,438.756L540.114,403.369L544.52,400.825L548.927,403.369Z" style="fill:rgb(72,245,160);"/>
                </g>
                <g transform="matrix(1,0,0,1,-9.34124,7.19126)">
                    <g transform="matrix(50,0,0,50,144.625,191.207)">
                        <path d="M0.19,-0L0.075,-0L0.075,-0.487L0.186,-0.487L0.186,-0.425C0.199,-0.449 0.22,-0.468 0.247,-0.481C0.274,-0.494 0.301,-0.501 0.33,-0.501C0.363,-0.501 0.392,-0.494 0.418,-0.479C0.444,-0.464 0.463,-0.443 0.476,-0.415C0.51,-0.472 0.563,-0.501 0.634,-0.501C0.682,-0.501 0.723,-0.485 0.756,-0.454C0.789,-0.423 0.806,-0.377 0.806,-0.316L0.806,-0L0.694,-0L0.694,-0.297C0.694,-0.327 0.686,-0.351 0.671,-0.37C0.655,-0.388 0.631,-0.397 0.6,-0.397C0.57,-0.397 0.546,-0.387 0.527,-0.366C0.508,-0.345 0.499,-0.32 0.499,-0.289L0.499,-0L0.385,-0L0.385,-0.297C0.385,-0.327 0.377,-0.351 0.362,-0.37C0.346,-0.388 0.322,-0.397 0.291,-0.397C0.26,-0.397 0.236,-0.387 0.218,-0.367C0.199,-0.346 0.19,-0.32 0.19,-0.289L0.19,-0Z" style="fill-rule:nonzero;"/>
                    </g>
                    <g transform="matrix(50,0,0,50,185.275,191.207)">
                        <path d="M0.156,-0.297L0.395,-0.297C0.394,-0.328 0.383,-0.353 0.363,-0.374C0.342,-0.395 0.313,-0.405 0.275,-0.405C0.24,-0.405 0.212,-0.394 0.191,-0.373C0.17,-0.351 0.158,-0.326 0.156,-0.297ZM0.408,-0.17L0.506,-0.139C0.492,-0.094 0.466,-0.058 0.428,-0.029C0.389,0 0.342,0.015 0.286,0.015C0.217,0.015 0.158,-0.009 0.11,-0.056C0.061,-0.103 0.037,-0.167 0.037,-0.246C0.037,-0.321 0.061,-0.382 0.108,-0.43C0.155,-0.478 0.21,-0.502 0.274,-0.502C0.349,-0.502 0.407,-0.479 0.449,-0.434C0.491,-0.388 0.512,-0.326 0.512,-0.249C0.512,-0.228 0.511,-0.216 0.509,-0.212L0.153,-0.212C0.154,-0.175 0.168,-0.145 0.194,-0.121C0.219,-0.097 0.25,-0.085 0.286,-0.085C0.349,-0.085 0.389,-0.113 0.408,-0.17Z" style="fill-rule:nonzero;"/>
                    </g>
                    <g transform="matrix(50,0,0,50,209.675,191.207)">
                        <path d="M0.19,-0L0.075,-0L0.075,-0.487L0.186,-0.487L0.186,-0.425C0.199,-0.449 0.22,-0.468 0.247,-0.481C0.274,-0.494 0.301,-0.501 0.33,-0.501C0.363,-0.501 0.392,-0.494 0.418,-0.479C0.444,-0.464 0.463,-0.443 0.476,-0.415C0.51,-0.472 0.563,-0.501 0.634,-0.501C0.682,-0.501 0.723,-0.485 0.756,-0.454C0.789,-0.423 0.806,-0.377 0.806,-0.316L0.806,-0L0.694,-0L0.694,-0.297C0.694,-0.327 0.686,-0.351 0.671,-0.37C0.655,-0.388 0.631,-0.397 0.6,-0.397C0.57,-0.397 0.546,-0.387 0.527,-0.366C0.508,-0.345 0.499,-0.32 0.499,-0.289L0.499,-0L0.385,-0L0.385,-0.297C0.385,-0.327 0.377,-0.351 0.362,-0.37C0.346,-0.388 0.322,-0.397 0.291,-0.397C0.26,-0.397 0.236,-0.387 0.218,-0.367C0.199,-0.346 0.19,-0.32 0.19,-0.289L0.19,-0Z" style="fill-rule:nonzero;"/>
                    </g>
                    <g transform="matrix(50,0,0,50,250.325,191.207)">
                        <path d="M0.193,-0.131C0.219,-0.103 0.251,-0.089 0.289,-0.089C0.327,-0.089 0.359,-0.103 0.386,-0.13C0.412,-0.157 0.425,-0.195 0.425,-0.244C0.425,-0.292 0.412,-0.33 0.386,-0.357C0.359,-0.384 0.327,-0.397 0.289,-0.397C0.251,-0.397 0.219,-0.384 0.193,-0.357C0.166,-0.33 0.153,-0.292 0.153,-0.244C0.153,-0.196 0.166,-0.158 0.193,-0.131ZM0.289,-0.502C0.362,-0.502 0.423,-0.478 0.47,-0.429C0.518,-0.38 0.542,-0.319 0.542,-0.244C0.542,-0.169 0.518,-0.108 0.47,-0.059C0.423,-0.01 0.362,0.015 0.289,0.015C0.216,0.015 0.156,-0.01 0.109,-0.059C0.061,-0.108 0.037,-0.169 0.037,-0.244C0.037,-0.319 0.061,-0.38 0.109,-0.429C0.156,-0.478 0.216,-0.502 0.289,-0.502Z" style="fill-rule:nonzero;"/>
                    </g>
                    <g transform="matrix(50,0,0,50,276.275,191.207)">
                        <path d="M0.188,-0L0.075,-0L0.075,-0.724L0.189,-0.724L0.189,-0.427C0.201,-0.448 0.221,-0.465 0.248,-0.479C0.275,-0.493 0.307,-0.5 0.342,-0.5C0.413,-0.5 0.468,-0.476 0.507,-0.429C0.547,-0.381 0.567,-0.32 0.567,-0.246C0.567,-0.171 0.546,-0.109 0.504,-0.061C0.463,-0.012 0.407,0.012 0.338,0.012C0.269,0.012 0.219,-0.014 0.188,-0.065L0.188,-0ZM0.413,-0.133C0.438,-0.16 0.45,-0.198 0.45,-0.245C0.45,-0.292 0.438,-0.33 0.414,-0.357C0.39,-0.384 0.358,-0.397 0.319,-0.397C0.281,-0.397 0.25,-0.384 0.225,-0.357C0.2,-0.33 0.188,-0.292 0.188,-0.245C0.188,-0.198 0.2,-0.161 0.225,-0.133C0.25,-0.105 0.281,-0.091 0.319,-0.091C0.358,-0.091 0.389,-0.105 0.413,-0.133Z" style="fill-rule:nonzero;"/>
                    </g>
                    <g transform="matrix(50,0,0,50,303.475,191.207)">
                        <path d="M0.193,-0.131C0.219,-0.103 0.251,-0.089 0.289,-0.089C0.327,-0.089 0.359,-0.103 0.386,-0.13C0.412,-0.157 0.425,-0.195 0.425,-0.244C0.425,-0.292 0.412,-0.33 0.386,-0.357C0.359,-0.384 0.327,-0.397 0.289,-0.397C0.251,-0.397 0.219,-0.384 0.193,-0.357C0.166,-0.33 0.153,-0.292 0.153,-0.244C0.153,-0.196 0.166,-0.158 0.193,-0.131ZM0.289,-0.502C0.362,-0.502 0.423,-0.478 0.47,-0.429C0.518,-0.38 0.542,-0.319 0.542,-0.244C0.542,-0.169 0.518,-0.108 0.47,-0.059C0.423,-0.01 0.362,0.015 0.289,0.015C0.216,0.015 0.156,-0.01 0.109,-0.059C0.061,-0.108 0.037,-0.169 0.037,-0.244C0.037,-0.319 0.061,-0.38 0.109,-0.429C0.156,-0.478 0.216,-0.502 0.289,-0.502Z" style="fill-rule:nonzero;"/>
                    </g>
                    <g transform="matrix(50,0,0,50,328.675,191.207)">
                        <path d="M0.011,-0L0.188,-0.246L0.014,-0.487L0.152,-0.487C0.155,-0.482 0.173,-0.455 0.206,-0.407C0.239,-0.36 0.257,-0.334 0.259,-0.331L0.365,-0.487L0.497,-0.487L0.326,-0.248L0.503,-0L0.367,-0L0.254,-0.163C0.252,-0.16 0.242,-0.146 0.225,-0.119C0.207,-0.093 0.19,-0.068 0.173,-0.043C0.156,-0.019 0.147,-0.005 0.144,-0L0.011,-0Z" style="fill-rule:nonzero;"/>
                    </g>
                </g>
            </g>
        </g>
    </g>
</svg>
